<svg xmlns="http://www.w3.org/2000/svg" width="1200" height="675" viewBox="0 0 1200 675">
  <defs>
    <linearGradient id="bg" x1="0" y1="0" x2="1" y2="1">
      <stop offset="0" stop-color="#050816"/>
      <stop offset="1" stop-color="#07112a"/>
    </linearGradient>
    <linearGradient id="neon" x1="0" y1="0" x2="1" y2="0">
      <stop offset="0" stop-color="#00e5ff" stop-opacity="0.95"/>
      <stop offset="0.5" stop-color="#7c4dff" stop-opacity="0.95"/>
      <stop offset="1" stop-color="#ff2bd6" stop-opacity="0.9"/>
    </linearGradient>
    <filter id="glow" x="-30%" y="-30%" width="160%" height="160%">
      <feGaussianBlur stdDeviation="7" result="b"/>
      <feMerge>
        <feMergeNode in="b"/>
        <feMergeNode in="SourceGraphic"/>
      </feMerge>
    </filter>
  </defs>

  <rect width="1200" height="675" fill="url(#bg)"/>

  <g opacity="0.14">
    <path d="M0 80H1200M0 160H1200M0 240H1200M0 320H1200M0 400H1200M0 480H1200M0 560H1200" stroke="#00e5ff" stroke-width="1"/>
    <path d="M120 0V675M240 0V675M360 0V675M480 0V675M600 0V675M720 0V675M840 0V675M960 0V675M1080 0V675" stroke="#00e5ff" stroke-width="1"/>
  </g>

  <rect x="70" y="70" width="1060" height="535" rx="38" fill="rgba(255,255,255,0.03)" stroke="rgba(0,229,255,0.22)" stroke-width="2"/>

  <path d="M140 190H1060" stroke="url(#neon)" stroke-width="6" filter="url(#glow)"/>

  <text x="140" y="165" fill="#e8fbff" font-family="JetBrains Mono, ui-monospace, monospace" font-size="34" font-weight="800">COMING SOON</text>
  <text x="140" y="250" fill="rgba(232,251,255,0.75)" font-family="Space Grotesk, system-ui, sans-serif" font-size="22">In progress • Shipping soon</text>

  <g transform="translate(140 320)" opacity="0.95">
    <rect x="0" y="0" width="520" height="34" rx="999" fill="rgba(255,255,255,0.04)" stroke="rgba(255,255,255,0.10)"/>
    <rect x="0" y="0" width="310" height="34" rx="999" fill="rgba(0,229,255,0.22)" stroke="rgba(0,229,255,0.32)" filter="url(#glow)"/>
    <text x="20" y="24" fill="rgba(232,251,255,0.86)" font-family="JetBrains Mono, ui-monospace, monospace" font-size="16">BUILDING…</text>
  </g>
</svg>
