<svg xmlns="http://www.w3.org/2000/svg" width="1200" height="675" viewBox="0 0 1200 675">
  <defs>
    <linearGradient id="bg" x1="0" y1="0" x2="1" y2="1">
      <stop offset="0" stop-color="#050816"/>
      <stop offset="1" stop-color="#081b2e"/>
    </linearGradient>
    <linearGradient id="neon" x1="0" y1="0" x2="1" y2="0">
      <stop offset="0" stop-color="#00e5ff" stop-opacity="0.95"/>
      <stop offset="0.55" stop-color="#7c4dff" stop-opacity="0.95"/>
      <stop offset="1" stop-color="#ff2bd6" stop-opacity="0.9"/>
    </linearGradient>
    <filter id="glow" x="-30%" y="-30%" width="160%" height="160%">
      <feGaussianBlur stdDeviation="6" result="b"/>
      <feColorMatrix in="b" type="matrix" values="1 0 0 0 0  0 1 0 0 0  0 0 1 0 0  0 0 0 0.8 0"/>
      <feMerge>
        <feMergeNode/>
        <feMergeNode in="SourceGraphic"/>
      </feMerge>
    </filter>
  </defs>

  <rect width="1200" height="675" fill="url(#bg)"/>

  <!-- grid -->
  <g opacity="0.16">
    <path d="M0 80H1200M0 160H1200M0 240H1200M0 320H1200M0 400H1200M0 480H1200M0 560H1200" stroke="#00e5ff" stroke-width="1"/>
    <path d="M120 0V675M240 0V675M360 0V675M480 0V675M600 0V675M720 0V675M840 0V675M960 0V675M1080 0V675" stroke="#00e5ff" stroke-width="1"/>
  </g>

  <!-- card -->
  <rect x="70" y="70" width="1060" height="535" rx="38" fill="rgba(255,255,255,0.03)" stroke="rgba(0,229,255,0.25)" stroke-width="2"/>

  <!-- accent line -->
  <path d="M140 190H1060" stroke="url(#neon)" stroke-width="6" filter="url(#glow)"/>

  <text x="140" y="165" fill="#e8fbff" font-family="JetBrains Mono, ui-monospace, monospace" font-size="34" font-weight="700">EDUPREDICT</text>
  <text x="140" y="250" fill="rgba(232,251,255,0.75)" font-family="Space Grotesk, system-ui, sans-serif" font-size="22">Prediction • Analytics • ML pipeline</text>

  <!-- simple chart glyph -->
  <g transform="translate(140 300)">
    <rect x="0" y="170" width="70" height="110" rx="14" fill="rgba(0,229,255,0.18)" stroke="rgba(0,229,255,0.35)"/>
    <rect x="90" y="120" width="70" height="160" rx="14" fill="rgba(124,77,255,0.18)" stroke="rgba(124,77,255,0.35)"/>
    <rect x="180" y="70" width="70" height="210" rx="14" fill="rgba(255,43,214,0.16)" stroke="rgba(255,43,214,0.32)"/>
    <path d="M10 140C80 80 150 90 215 30" fill="none" stroke="url(#neon)" stroke-width="4" filter="url(#glow)"/>
  </g>
</svg>
